<?xml version="1.0" encoding="iso-8859-1"?>
<!-- Generator: Adobe Illustrator 19.0.0, SVG Export Plug-In . SVG Version: 6.00 Build 0)  -->
<svg version="1.1" id="Layer_1" xmlns="http://www.w3.org/2000/svg" xmlns:xlink="http://www.w3.org/1999/xlink" x="0px" y="0px"
	 viewBox="0 0 512 512" style="enable-background:new 0 0 512 512;" xml:space="preserve">
<path style="fill:#EAEAEA;" d="M256.001,512c-41.368,0-102.183-2.697-152.499-26.019c-27.072-12.548-48.267-29.902-62.996-51.578
	c-16.869-24.826-25.422-55.547-25.422-91.307c0-52.666,12.884-85.181,29.193-126.347c5.53-13.958,11.247-28.389,17.184-45.307
	c15.09-43,33.285-87.282,63.971-119.882C158.093,16.866,200.802,0,256.001,0c55.199,0,97.908,16.866,130.566,51.558
	c30.687,32.6,48.88,76.883,63.971,119.882c5.936,16.918,11.655,31.349,17.184,45.307c16.31,41.166,29.192,73.681,29.192,126.347
	c0,35.762-8.552,66.482-25.421,91.307c-14.729,21.677-35.924,39.03-62.997,51.578C358.183,509.303,297.367,512,256.001,512"/>
<path style="fill:#FFAB00;" d="M256.001,449.268L90.852,345.219l101.204-36.113c8.015-18.046,28.062-42.671,63.946-42.671
	s55.93,24.624,63.945,42.671l101.205,36.113L256.001,449.268"/>
<g>
	<path style="fill:#333333;" d="M183.268,203.755c0-11.513,9.229-20.835,20.569-20.835c11.355,0,20.582,9.324,20.582,20.835
		c0,11.511-9.227,20.843-20.582,20.843C192.497,224.598,183.268,215.266,183.268,203.755z"/>
	<path style="fill:#333333;" d="M328.733,203.755c0-11.597-9.289-20.997-20.725-20.997c-11.45,0-20.739,9.401-20.739,20.997
		s9.289,20.998,20.739,20.998C319.444,224.753,328.733,215.352,328.733,203.755"/>
</g>
<path style="fill:#AEAEAF;" d="M308.009,224.753c-11.45,0-20.739-9.401-20.739-20.998s9.289-20.997,20.739-20.997
	c11.435,0,20.724,9.401,20.724,20.997S319.444,224.753,308.009,224.753 M256.001,0v266.435c35.884,0,55.93,24.624,63.945,42.671
	l101.205,36.113l-165.149,104.05V512c41.366,0,102.182-2.697,152.497-26.019c27.072-12.548,48.268-29.902,62.997-51.578
	c16.869-24.826,25.421-55.547,25.421-91.307c0-52.666-12.883-85.181-29.192-126.347c-5.53-13.958-11.248-28.389-17.184-45.307
	c-15.09-43-33.285-87.282-63.971-119.882C353.908,16.866,311.2,0,256.001,0"/>
<path style="fill:#BD7F00;" d="M256.001,266.435v182.833l165.149-104.05l-101.205-36.113
	C311.93,291.06,291.885,266.435,256.001,266.435"/>
<g>
</g>
<g>
</g>
<g>
</g>
<g>
</g>
<g>
</g>
<g>
</g>
<g>
</g>
<g>
</g>
<g>
</g>
<g>
</g>
<g>
</g>
<g>
</g>
<g>
</g>
<g>
</g>
<g>
</g>
</svg>
